# xmcd CD database file
#
# Track frame offsets:
#	150
#	20290
#	36262
#	53802
#	66662
#	97790
#	115397
#	147052
#	169790
#	205347
#	229612
#	265800
#	287507
#
# Disc length: 4216 seconds
#
# Revision: 0
# Processed by: cddbd v1.5.1PL0 Copyright (c) Steve Scherf et al.
# Submitted via: CDex 1.50
#
DISCID=b410760d
DTITLE=Brass Highlights - Disc 3 - Trombone
DYEAR=1900
DGENRE=Jazz
TTITLE0=Dickenson, Vic - After You´ve Gone
TTITLE1=Grey, Al - I Needs To Be Bee´d With
TTITLE2=Johnson, Jay Jay - Old Devil Moon
TTITLE3=Rosolino, Frank - I´m Gonna Sit Right Down And Write Myself A Letter
TTITLE4=Brookmeyer, Bob - Ain´t Misbehavin
TTITLE5=Cleveland, Jimmy - Summertime
TTITLE6=Green, Bennie - Just Friends
TTITLE7=Fuller, Curtis - Algonquin
TTITLE8=Moncur, Grachan - Monk In Wonderland
TTITLE9=Priester, Julian - Paean
TTITLE10=Henderson, Wayne - Tough Talk
TTITLE11=Lacy, Frank - Miss Lady
TTITLE12=Turre, Steve - Escape to Quiet Desperation
EXTD=
EXTT0=
EXTT1=
EXTT2=
EXTT3=
EXTT4=
EXTT5=
EXTT6=
EXTT7=
EXTT8=
EXTT9=
EXTT10=
EXTT11=
EXTT12=
PLAYORDER=
